<svg
  width="40"
  height="40"
  viewBox="0 0 40 40"
  fill="none"
  xmlns="http://www.w3.org/2000/svg"
>
  <path
    d="M20 10C18.2458 10 16.7852 11.3107 16.54 13H13.1191C13.0766 12.9927 13.0334 12.9891 12.9902 12.9893C12.9529 12.9901 12.9157 12.9937 12.8789 13H11.25C11.1506 12.9986 11.0519 13.017 10.9597 13.054C10.8675 13.0911 10.7836 13.1461 10.7128 13.2159C10.642 13.2857 10.5858 13.3688 10.5474 13.4605C10.5091 13.5522 10.4893 13.6506 10.4893 13.75C10.4893 13.8494 10.5091 13.9478 10.5474 14.0395C10.5858 14.1312 10.642 14.2143 10.7128 14.2841C10.7836 14.3539 10.8675 14.4089 10.9597 14.446C11.0519 14.483 11.1506 14.5014 11.25 14.5H12.3193L13.5781 27.5146C13.7137 28.918 14.9059 30 16.3154 30H23.6836C25.0932 30 26.2854 28.9181 26.4209 27.5146L27.6807 14.5H28.75C28.8494 14.5014 28.9481 14.483 29.0403 14.446C29.1325 14.4089 29.2164 14.3539 29.2872 14.2841C29.358 14.2143 29.4142 14.1312 29.4526 14.0395C29.4909 13.9478 29.5107 13.8494 29.5107 13.75C29.5107 13.6506 29.4909 13.5522 29.4526 13.4605C29.4142 13.3688 29.358 13.2857 29.2872 13.2159C29.2164 13.1461 29.1325 13.0911 29.0403 13.054C28.9481 13.017 28.8494 12.9986 28.75 13H27.1221C27.0425 12.9871 26.9614 12.9871 26.8818 13H23.46C23.2148 11.3107 21.7542 10 20 10ZM20 11.5C20.9396 11.5 21.7104 12.1341 21.9307 13H18.0693C18.2896 12.1341 19.0604 11.5 20 11.5ZM13.8252 14.5H26.1738L24.9277 27.3701C24.8652 28.0177 24.334 28.5 23.6836 28.5H16.3154C15.666 28.5 15.1338 28.0168 15.0713 27.3701L13.8252 14.5ZM18.2383 16.9893C18.0395 16.9924 17.8502 17.0742 17.7117 17.2169C17.5733 17.3595 17.4971 17.5513 17.5 17.75V25.25C17.4986 25.3494 17.517 25.4481 17.554 25.5403C17.5911 25.6325 17.6461 25.7164 17.7159 25.7872C17.7857 25.858 17.8688 25.9142 17.9605 25.9526C18.0522 25.9909 18.1506 26.0107 18.25 26.0107C18.3494 26.0107 18.4478 25.9909 18.5395 25.9526C18.6312 25.9142 18.7143 25.858 18.7841 25.7872C18.8539 25.7164 18.9089 25.6325 18.946 25.5403C18.983 25.4481 19.0014 25.3494 19 25.25V17.75C19.0014 17.6496 18.9827 17.55 18.9449 17.457C18.9071 17.3639 18.8511 17.2795 18.78 17.2085C18.709 17.1376 18.6245 17.0816 18.5314 17.0439C18.4383 17.0063 18.3387 16.9877 18.2383 16.9893ZM21.7383 16.9893C21.5395 16.9924 21.3502 17.0742 21.2117 17.2169C21.0733 17.3595 20.9972 17.5513 21 17.75V25.25C20.9986 25.3494 21.017 25.4481 21.054 25.5403C21.0911 25.6325 21.1461 25.7164 21.2159 25.7872C21.2857 25.858 21.3688 25.9142 21.4605 25.9526C21.5522 25.9909 21.6506 26.0107 21.75 26.0107C21.8494 26.0107 21.9478 25.9909 22.0395 25.9526C22.1312 25.9142 22.2143 25.858 22.2841 25.7872C22.3539 25.7164 22.4089 25.6325 22.446 25.5403C22.483 25.4481 22.5014 25.3494 22.5 25.25V17.75C22.5014 17.6496 22.4827 17.55 22.4449 17.457C22.4071 17.3639 22.3511 17.2795 22.28 17.2085C22.209 17.1376 22.1245 17.0816 22.0314 17.0439C21.9383 17.0063 21.8387 16.9877 21.7383 16.9893Z"
    fill="#555D71"
  />
</svg>
