<svg
  width="40"
  height="40"
  viewBox="0 0 40 40"
  fill="none"
  xmlns="http://www.w3.org/2000/svg"
>
  <path
    d="M26 10.5049C25.1027 10.5049 24.2054 10.8451 23.5254 11.5254L12.458 22.5918C12.248 22.8018 12.0943 23.0629 12.0127 23.3496L10.5293 28.5439C10.4927 28.6725 10.4912 28.8084 10.5247 28.9378C10.5583 29.0671 10.6259 29.1852 10.7204 29.2797C10.8149 29.3742 10.9329 29.4417 11.0622 29.4753C11.1916 29.5089 11.3276 29.5073 11.4561 29.4707L16.6514 27.9873C16.6517 27.987 16.652 27.9867 16.6524 27.9863C16.9371 27.9045 17.1976 27.7526 17.4082 27.542L28.4746 16.4746C29.8352 15.114 29.8352 12.886 28.4746 11.5254C27.7946 10.8451 26.8974 10.5049 26 10.5049ZM26 11.9961C26.5104 11.9961 27.0201 12.1928 27.4131 12.5859C27.4134 12.5859 27.4138 12.5859 27.4141 12.5859C28.2015 13.3734 28.2015 14.6266 27.4141 15.4141L26.4444 16.3838L23.6162 13.5557L24.586 12.5859C24.979 12.1928 25.4896 11.9961 26 11.9961ZM22.5557 14.6162L25.3838 17.4443L16.3467 26.4814C16.3174 26.5106 16.2803 26.5329 16.2383 26.5449L12.3418 27.6582L13.4551 23.7607C13.4551 23.7604 13.4551 23.7601 13.4551 23.7598C13.4666 23.7195 13.4876 23.6834 13.5186 23.6523L22.5557 14.6162Z"
    fill="#555D71"
  />
</svg>
